<svg version="1" xmlns="http://www.w3.org/2000/svg" width="1421.333" height="1421.333" viewBox="0 0 1066 1066"><path d="M755 64.3c0 .1 40.7 111.2 90.5 246.7 49.8 135.6 102.8 279.9 117.8 320.7 18.7 50.9 27.5 73.7 28 72.6 4.9-8.6 19.1-53.5 24.5-77.3 20.2-88.5 16.2-182.3-11.3-268-10.1-31.3-26.5-68.7-42.5-96.6-8.6-15-29.1-45.7-39.3-58.7-40-51.2-88.8-94.1-144.4-127-10.7-6.3-23.3-13.1-23.3-12.4zM257.2 81.7C189.2 123 129 184 86.9 254 16.2 371.9-3.2 515.3 33.6 649c3.7 13.5 11.1 36.3 12.7 39.4.7 1.5 4.9-9.2 20.7-53 10.9-30.2 60.8-168.5 110.9-307.3 50.1-138.8 91-252.6 90.8-252.8-.2-.2-5.4 2.7-11.5 6.4zm254.4 95.5c-.6 2.3-12.8 50.4-64.9 255.8l-28.2 111.5 94.9.3c52.2.1 95.1 0 95.3-.2.2-.2-18.6-75.2-41.8-166.7-23.2-91.5-44.2-174.6-46.8-184.7-3.6-14.3-4.9-18.2-6.2-18.2-.9 0-1.9 1-2.3 2.2zm-134.1 540c-.2.7-8.1 35.2-17.5 76.7s-17.3 75.8-17.6 76.3c-.3.4-40.9.8-90.2.8h-89.6l7.4 7.6c4.1 4.2 12.2 11.7 18 16.8 91.9 81 210.5 125.6 334 125.6 99 0 195.8-28.8 278-82.9 24.6-16.1 57.5-42.7 75-60.5l6.4-6.6H686l-1-2.3c-.6-1.2-7.8-32.1-16-68.7-8.3-36.6-16-70.4-17.1-75.3l-2.1-8.7H513.9c-107.9 0-136.1.3-136.4 1.2z"/></svg>